<?xml version="1.0" encoding="UTF-8"?>
<svg width="84px" height="54px" viewBox="0 0 84 54" version="1.1" xmlns="http://www.w3.org/2000/svg" xmlns:xlink="http://www.w3.org/1999/xlink">
    <!-- Generator: Sketch 54 (76480) - https://sketchapp.com -->
    <title>Group 2</title>
    <desc>Created with Sketch.</desc>
    <g id="Snap" stroke="none" stroke-width="1" fill="none" fill-rule="evenodd">
        <g id="Dashboard-Logged-In" transform="translate(-920.000000, -783.000000)">
            <g id="Group-2" transform="translate(961.426543, 807.292403) scale(1, -1) translate(-961.426543, -807.292403) translate(918.426543, 778.792403)">
                <g id="Group-3" transform="translate(43.000000, 29.233686) scale(-1, 1) rotate(-7.000000) translate(-43.000000, -29.233686) translate(3.000000, 6.233686)">
                    <circle id="Oval" fill="#417505" cx="68.3906533" cy="7.47380423" r="7"></circle>
                    <circle id="Oval" fill="#EADB1D" cx="49.2885377" cy="7.143379" r="7"></circle>
                    <circle id="Oval" fill="#4A90E2" cx="30.0645528" cy="7.80549993" r="7"></circle>
                    <circle id="Oval" fill="#D0021B" cx="9.63439197" cy="8.31952108" r="7"></circle>
                    <rect id="Rectangle" fill="#AA8953" transform="translate(50.000000, 26.500000) scale(-1, 1) translate(-50.000000, -26.500000) " x="40" y="7" width="20" height="39" rx="2"></rect>
                    <rect id="Rectangle" fill="#AA8953" transform="translate(70.000000, 23.000000) scale(-1, 1) translate(-70.000000, -23.000000) " x="60" y="7" width="20" height="32" rx="2"></rect>
                    <rect id="Rectangle" fill="#AA8953" transform="translate(30.000000, 23.000000) scale(-1, 1) translate(-30.000000, -23.000000) " x="20" y="7" width="20" height="32" rx="2"></rect>
                    <rect id="Rectangle" fill="#AA8953" transform="translate(10.000000, 17.000000) scale(-1, 1) translate(-10.000000, -17.000000) " x="-1.8189894e-12" y="7" width="20" height="20" rx="2"></rect>
                    <rect id="Rectangle" fill="#AA8953" transform="translate(29.500000, 28.000000) scale(-1, 1) translate(-29.500000, -28.000000) " x="24" y="23" width="11" height="10" rx="2"></rect>
                    <rect id="Rectangle" fill="#AA8953" transform="translate(50.500000, 36.000000) scale(-1, 1) translate(-50.500000, -36.000000) " x="45" y="31" width="11" height="10" rx="2"></rect>
                    <rect id="Rectangle" fill="#AA8953" transform="translate(69.500000, 30.000000) scale(-1, 1) translate(-69.500000, -30.000000) " x="64" y="25" width="11" height="10" rx="2"></rect>
                    <rect id="Rectangle" fill="#AA8953" transform="translate(10.500000, 18.000000) scale(-1, 1) translate(-10.500000, -18.000000) " x="5" y="13" width="11" height="10" rx="2"></rect>
                </g>
                <g id="download-(3)" transform="translate(55.365860, 15.000000) rotate(6.000000) translate(-55.365860, -15.000000) translate(47.365860, 7.000000)" fill-rule="nonzero">
                    <circle id="Oval" stroke="#A87548" stroke-width="2" fill="#602A52" cx="8" cy="8" r="9"></circle>
                    <path d="M10.4334197,7.65620338 C10.3015785,7.26812471 10.0663431,6.92850202 9.75599685,6.67816933 L9.75268079,6.67416919 C9.71979379,6.6479071 9.68614334,6.62272746 9.65177794,6.59866656 L9.64514583,6.59366638 C9.61129093,6.57021005 9.57685511,6.54770142 9.54187437,6.52616403 L9.53239992,6.52016382 C9.49810073,6.49918056 9.4628448,6.47999005 9.42675985,6.46266182 L9.41633796,6.45666161 C9.37941538,6.43835702 9.34214141,6.42085274 9.3045395,6.40415978 L9.29222272,6.39915961 C9.17052299,6.34583069 9.0442478,6.30497467 8.91513977,6.27715536 C8.84074245,6.41956432 8.7450874,6.54838707 8.63185383,6.65866865 C8.89778383,6.68106572 9.15468576,6.77076696 9.38080879,6.92017775 L9.39359929,6.92817803 L9.45613063,6.9731796 L9.48455397,6.99418033 C9.50350286,7.00918085 9.52103059,7.02418137 9.5404532,7.0391819 L9.57219259,7.06618284 C9.5892466,7.08118336 9.60487943,7.09618388 9.62098599,7.11168442 L9.65319911,7.14418555 L9.69725528,7.19118719 L9.7294684,7.22768846 L9.76878735,7.27619015 L9.7995793,7.31669156 L9.83510847,7.3666933 C9.84695153,7.38319388 9.85500481,7.39619433 9.86447925,7.41069483 C9.8739537,7.42519534 9.88627048,7.444196 9.89621865,7.46169661 L9.92369454,7.50969828 C9.93222154,7.52569884 9.94264343,7.54369946 9.95117043,7.56070006 C9.96064488,7.57720063 9.96822444,7.59570128 9.97675144,7.6137019 C9.98480472,7.63170253 9.99285799,7.64670305 9.99996383,7.66370364 C10.0088226,7.68589503 10.0173507,7.7082319 10.0255448,7.73070598 C10.0704956,7.84909957 10.1022894,7.97259509 10.1202893,8.09871879 L10.171925,8.30072582 C10.1937162,8.38472875 10.3950482,9.12875466 10.8616647,9.37926338 C11.3964972,9.66877346 12.104712,10.0262859 12.3832607,10.1677908 L8.70433334,12.4478702 L8.70433334,10.8853158 C8.70433334,10.6388072 9.17805564,10.3502972 9.39738907,10.2487937 L9.41017957,10.2412934 C9.45518319,10.2177926 9.5001868,10.1922917 9.54282181,10.1652908 L9.56129698,10.1552904 C9.65617657,10.0949622 9.74645719,10.0269205 9.83131869,9.95178332 L9.85405736,9.93028257 L9.88011209,9.90578171 C9.90678701,9.88048205 9.93285011,9.85447279 9.95827627,9.827779 L9.97154049,9.81427853 C9.99949011,9.7847775 10.0274397,9.75677653 10.0520733,9.72227532 L10.0752857,9.69427435 C10.0961295,9.66827344 10.1160258,9.64177252 10.1354484,9.61477158 L10.1525024,9.5922708 C10.1761885,9.55926965 10.1979797,9.52526846 10.219771,9.49076726 L10.2273505,9.48076691 C10.2567213,9.43226523 10.282776,9.38376354 10.3102519,9.33326178 C10.2070833,9.20181036 10.1186971,9.05818038 10.0468623,8.90524687 C10.0174916,8.99174989 9.98054121,9.07575281 9.93790621,9.15625562 C9.91990476,9.19125683 9.90095587,9.22525802 9.88200698,9.25825917 L9.87347998,9.27175964 C9.85560016,9.2998206 9.83695938,9.32733293 9.81758074,9.35426251 L9.80052674,9.37726331 C9.78122793,9.40355547 9.76100156,9.42907429 9.73989029,9.45376597 L9.72852095,9.46776646 C9.5914654,9.62574865 9.42777615,9.75545723 9.24579793,9.85027978 L9.2112162,9.86878043 C9.11789291,9.91228194 8.295511,10.2972953 8.295511,10.8828157 L8.295511,12.4458702 L4.6052143,10.1617906 C4.84254917,10.0087853 5.53607861,9.58277047 6.10644026,9.39526394 C6.32956346,9.32326143 6.80328576,9.63177217 7.0718863,9.85828006 L7.08799286,9.87328058 C7.12352203,9.9082818 7.1609461,9.94178297 7.19979132,9.97328406 L7.21305555,9.9857845 C7.29832556,10.057787 7.38928024,10.1222893 7.48449843,10.1792912 L7.54845094,10.2157925 L7.56124144,10.2227928 C7.62329906,10.2557939 7.68677785,10.2857949 7.7516778,10.3122959 L7.78010114,10.3237963 L7.79905003,10.3317965 C7.89237332,10.3677978 7.98853895,10.3957988 8.08565202,10.4167995 C8.16207885,10.2726032 8.26069537,10.1428281 8.37746496,10.0327861 C8.22178394,10.0206198 8.06851634,9.98526829 7.92221783,9.92778248 L7.89711055,9.91778213 L7.84879087,9.89728142 L7.82415731,9.88628104 L7.77725881,9.86328023 C7.66864809,9.80767244 7.56617847,9.73959194 7.47170792,9.66027317 L7.32485401,9.52226836 C7.19001193,9.39971108 7.04402807,9.29151517 6.8890295,9.19925711 C6.52426333,8.98424963 6.21918617,8.91424719 5.98516735,8.99024983 C5.49723338,9.14925537 4.94771552,9.45826613 4.61232013,9.66227324 L8.29693217,2.80353441 L8.29693217,5.807139 C8.29693217,5.9136427 8.14534103,6.19165238 7.63893189,6.4276606 L7.60387644,6.4476613 C7.55460933,6.47266217 7.50676337,6.49966311 7.45986487,6.52866412 L7.45039042,6.53366429 C7.29445777,6.63061721 7.15140761,6.74898839 7.0249878,6.88567655 L7.02025057,6.89067673 C6.97232821,6.9427046 6.92694989,6.99727732 6.88429227,7.05418242 L6.87908133,7.06168268 C6.8584939,7.08942298 6.83843562,7.11759629 6.8189186,7.14618562 L6.81228648,7.15618597 C6.79471972,7.18315998 6.77766235,7.21049965 6.76112448,7.23818883 L6.75543981,7.24668912 C6.73875778,7.27506452 6.72280334,7.30390933 6.70759386,7.33319213 L6.69669824,7.35369285 C6.6829603,7.38169382 6.66922235,7.41169487 6.6554844,7.43769577 L6.64932601,7.45119624 C6.63712339,7.4775328 6.625592,7.50420998 6.61474429,7.53119903 L6.60290123,7.56120007 C6.59200562,7.58920105 6.58205745,7.61920209 6.57210928,7.64620303 L6.56263483,7.67620408 C6.55538744,7.69765628 6.54875234,7.71933348 6.5427385,7.74120634 C6.53942244,7.75320676 6.53563266,7.76470716 6.53279033,7.7772076 C6.50559765,7.87761438 6.48580022,7.98008997 6.47357504,8.08371827 L6.46883782,8.13021989 C6.4665974,8.1513379 6.46485987,8.17251198 6.46362687,8.1937221 C6.46267943,8.21522285 6.46362687,8.23622358 6.46031082,8.25722431 C6.45699476,8.27872506 6.46031082,8.28322522 6.46031082,8.2972257 L6.46031082,8.34472736 C6.46031082,8.44973101 6.46789037,8.55473467 6.48304949,8.65923831 C6.64174357,8.7001065 6.79533608,8.76052316 6.94066523,8.83924458 C6.89605144,8.68827596 6.87212306,8.53134842 6.86960688,8.37322835 L6.86960688,8.34472736 C6.86960688,8.30672603 6.86960688,8.26922473 6.87387038,8.22922333 L6.87387038,8.19922229 C6.87387038,8.16672116 6.88002877,8.13372001 6.88429227,8.10121888 L6.88429227,8.08721839 C6.88918936,8.05105023 6.89583009,8.01516909 6.90418861,7.97971465 L6.90987328,7.95221369 C6.91697911,7.92221264 6.92408495,7.89321163 6.93308567,7.86371061 L6.93877034,7.84470995 C6.94824478,7.81020874 6.96008784,7.77670758 6.97240462,7.74320641 L6.98187907,7.72070563 C6.99230096,7.69320467 7.00367029,7.66570371 7.01551335,7.63820276 L7.02451407,7.61720202 C7.03919946,7.58470089 7.05530602,7.5531998 7.0718863,7.5216987 L7.08088703,7.50619816 C7.09581349,7.47907638 7.11145238,7.45239845 7.12778553,7.42619537 L7.13962859,7.40769473 C7.15905121,7.37769368 7.17894754,7.34969271 7.20026505,7.31869163 L7.20405482,7.31369146 C7.22442488,7.2861905 7.24574239,7.25968957 7.26753361,7.23368867 L7.27937667,7.21868815 C7.37933207,7.10268411 7.49397287,7.00118057 7.62045672,6.91717765 L7.79478653,6.83217469 C7.88810982,6.78867317 8.70670195,6.3931594 8.70670195,5.807139 L8.70670195,2.80353441 L12.4202111,9.71377503 C12.0886054,9.54526916 11.505927,9.2477588 11.0511536,9.0037503 C10.7915538,8.86374543 10.6143816,8.37022824 10.5689043,8.19322208 L10.5186897,7.98571486 C10.5001031,7.87436639 10.4728507,7.7648249 10.4372095,7.65820345 L10.4334197,7.65620338 Z M12.9488851,9.83127912 L8.85592448,2.21801402 C8.7823416,2.08244561 8.64533829,1.9991575 8.4973167,2.00000643 C8.34963333,1.99951816 8.21307184,2.08275759 8.13965636,2.21801402 L4.05143293,9.83177914 C3.94431567,10.0315614 4.00987483,10.2851393 4.19828684,10.3997989 L8.28982633,12.9398874 C8.41976771,13.0200375 8.58055035,13.0200375 8.71049173,12.9398874 L12.8015575,10.401799 C12.9898608,10.2873255 13.0556035,10.0340784 12.9488851,9.83427922 L12.9498326,9.83127912 L12.9488851,9.83127912 Z" id="Shape" fill="#FFFFFF"></path>
                </g>
                <g id="download-(2)" transform="translate(75.158263, 17.792403) rotate(6.000000) translate(-75.158263, -17.792403) translate(67.158263, 9.792403)" fill-rule="nonzero">
                    <circle id="Oval" stroke="#A87548" stroke-width="2" fill="#FF5000" cx="8" cy="8" r="9"></circle>
                    <path d="M3,11.75 L8.0255,3.25 L13,11.7385 L3,11.75 Z M8.0135,6.69 L5.9595,10.083 L10.077,10.083 L8.0135,6.69 Z" id="Shape" fill="#FFFFFF"></path>
                </g>
                <g id="download-(1)" transform="translate(35.365860, 12.000000) rotate(6.000000) translate(-35.365860, -12.000000) translate(27.365860, 4.000000)" fill-rule="nonzero">
                    <circle id="Oval" stroke="#A87548" stroke-width="2" fill="#1ABC9C" cx="8" cy="8" r="9"></circle>
                    <path d="M3.919,5.778 L3.919,11 L3,11 L3,4 L7.854,7.5135 L7.854,11 L6.935,11 L6.935,7.9615 L3.919,5.778 Z M9.065,7.9615 L9.065,11 L8.146,11 L8.146,7.5135 L13,4 L13,11 L12.081,11 L12.081,5.778 L9.065,7.9615 Z" id="Shape" fill="#FFFFFF"></path>
                </g>
                <g id="download" transform="translate(15.365860, 9.000000) rotate(6.000000) translate(-15.365860, -9.000000) translate(7.365860, 1.000000)" fill-rule="nonzero">
                    <circle id="Oval" stroke="#A87548" stroke-width="2" fill="#627EEA" cx="8" cy="8" r="9"></circle>
                    <g id="Group" transform="translate(4.000000, 2.000000)" fill="#FFFFFF">
                        <polygon id="Path" fill-opacity="0.602" points="3.99893333 0 3.99893333 4.435 7.99733333 6.11"></polygon>
                        <polygon id="Path" points="3.99893333 0 0 6.11 3.99893333 4.435"></polygon>
                        <polygon id="Path" fill-opacity="0.602" points="3.99893333 8.984 3.99893333 11.9975 8 6.808"></polygon>
                        <polygon id="Path" points="3.99893333 11.9975 3.99893333 8.9835 0 6.808"></polygon>
                        <polygon id="Path" fill-opacity="0.2" points="3.99893333 8.2865 7.99733333 6.11 3.99893333 4.436"></polygon>
                        <polygon id="Path" fill-opacity="0.602" points="0 6.11 3.99893333 8.2865 3.99893333 4.436"></polygon>
                    </g>
                </g>
            </g>
        </g>
    </g>
</svg>