<?xml version="1.0" encoding="UTF-8"?>
<svg width="377px" height="82px" viewBox="0 0 377 82" version="1.1" xmlns="http://www.w3.org/2000/svg" xmlns:xlink="http://www.w3.org/1999/xlink">
    <!-- Generator: Sketch 54 (76480) - https://sketchapp.com -->
    <title>Group 5</title>
    <desc>Created with Sketch.</desc>
    <defs>
        <filter x="-3.3%" y="-16.2%" width="106.5%" height="132.4%" filterUnits="objectBoundingBox" id="filter-1">
            <feOffset dx="0" dy="2" in="SourceAlpha" result="shadowOffsetOuter1"></feOffset>
            <feGaussianBlur stdDeviation="2" in="shadowOffsetOuter1" result="shadowBlurOuter1"></feGaussianBlur>
            <feColorMatrix values="0 0 0 0 0   0 0 0 0 0   0 0 0 0 0  0 0 0 0.5 0" type="matrix" in="shadowBlurOuter1" result="shadowMatrixOuter1"></feColorMatrix>
            <feMerge>
                <feMergeNode in="shadowMatrixOuter1"></feMergeNode>
                <feMergeNode in="SourceGraphic"></feMergeNode>
            </feMerge>
        </filter>
        <path d="M44.5026738,0 L87.6,0 L87.6,42.6 L44.5026738,42.6 C14.8342246,33.4 4.54747351e-13,26.4 4.54747351e-13,21.6 C4.54747351e-13,16.8 14.8342246,9.6 44.5026738,0 Z" id="path-2"></path>
        <path d="M44.5026738,0 L87.6,0 L87.6,42.6 L44.5026738,42.6 C14.8342246,33.4 0,26.4 0,21.6 C0,16.8 14.8342246,9.6 44.5026738,0 Z" id="path-4"></path>
    </defs>
    <g id="Snap" stroke="none" stroke-width="1" fill="none" fill-rule="evenodd">
        <g id="Dashboard-New-USER" transform="translate(-281.000000, -321.000000)">
            <g id="Group-5" transform="translate(285.000000, 323.000000)">
                <g id="Group-4" filter="url(#filter-1)" transform="translate(0.000000, 0.600000)">
                    <g id="Rectangle" transform="translate(44.000000, 36.200000) scale(1, -1) translate(-44.000000, -36.200000) translate(0.000000, 14.200000)">
                        <mask id="mask-3" fill="white">
                            <use xlink:href="#path-2"></use>
                        </mask>
                        <use id="Mask" fill="#A5A5A5" xlink:href="#path-2"></use>
                        <rect fill="#D8D8D8" mask="url(#mask-3)" x="4.54747351e-13" y="21" width="84" height="27.6"></rect>
                    </g>
                    <g id="Rectangle" transform="translate(325.000000, 36.200000) scale(-1, -1) translate(-325.000000, -36.200000) translate(281.000000, 14.200000)">
                        <mask id="mask-5" fill="white">
                            <use xlink:href="#path-4"></use>
                        </mask>
                        <use id="Mask" fill="#A5A5A5" xlink:href="#path-4"></use>
                        <rect fill="#D8D8D8" mask="url(#mask-5)" x="0" y="21" width="84" height="27.6"></rect>
                    </g>
                    <rect id="Rectangle" fill="#A38D9E" x="84" y="0" width="201" height="73.2" rx="18.6"></rect>
                    <rect id="Rectangle" fill="#774C6C" x="84" y="37.8" width="201" height="35.4" rx="17.7"></rect>
                </g>
                <polygon id="Rectangle" fill="#774C6C" points="84 37.8 285 37.8 285 59.4 84 59.4"></polygon>
                <text id="Snap" font-family="SpaceMono-Bold, Space Mono" font-size="45" font-weight="bold" fill="#FFFFFF">
                    <tspan x="129" y="50">Snap</tspan>
                </text>
            </g>
        </g>
    </g>
</svg>