<?xml version="1.0" encoding="UTF-8"?>
<svg width="189px" height="41px" viewBox="0 0 189 41" version="1.1" xmlns="http://www.w3.org/2000/svg" xmlns:xlink="http://www.w3.org/1999/xlink">
    <!-- Generator: Sketch 54 (76480) - https://sketchapp.com -->
    <title>Group 5</title>
    <desc>Created with Sketch.</desc>
    <defs>
        <filter x="-3.5%" y="-17.6%" width="107.0%" height="135.1%" filterUnits="objectBoundingBox" id="filter-1">
            <feOffset dx="0" dy="1" in="SourceAlpha" result="shadowOffsetOuter1"></feOffset>
            <feGaussianBlur stdDeviation="1" in="shadowOffsetOuter1" result="shadowBlurOuter1"></feGaussianBlur>
            <feColorMatrix values="0 0 0 0 0   0 0 0 0 0   0 0 0 0 0  0 0 0 0.5 0" type="matrix" in="shadowBlurOuter1" result="shadowMatrixOuter1"></feColorMatrix>
            <feMerge>
                <feMergeNode in="shadowMatrixOuter1"></feMergeNode>
                <feMergeNode in="SourceGraphic"></feMergeNode>
            </feMerge>
        </filter>
        <path d="M22.2513369,0 L43.8,0 L43.8,21.3 L22.2513369,21.3 C7.4171123,16.7 4.54747351e-13,13.2 4.54747351e-13,10.8 C4.54747351e-13,8.4 7.4171123,4.8 22.2513369,0 Z" id="path-2"></path>
        <path d="M22.2513369,0 L43.8,0 L43.8,21.3 L22.2513369,21.3 C7.4171123,16.7 0,13.2 0,10.8 C0,8.4 7.4171123,4.8 22.2513369,0 Z" id="path-4"></path>
    </defs>
    <g id="Snap" stroke="none" stroke-width="1" fill="none" fill-rule="evenodd">
        <g id="Dashboard-New-USER" transform="translate(-22.000000, -23.000000)">
            <g id="Group-5" transform="translate(24.000000, 24.000000)">
                <g id="Group-4" filter="url(#filter-1)" transform="translate(0.000000, 0.300000)">
                    <g id="Rectangle" transform="translate(22.000000, 18.100000) scale(1, -1) translate(-22.000000, -18.100000) translate(0.000000, 7.100000)">
                        <mask id="mask-3" fill="white">
                            <use xlink:href="#path-2"></use>
                        </mask>
                        <use id="Mask" fill="#A5A5A5" xlink:href="#path-2"></use>
                        <rect fill="#D8D8D8" mask="url(#mask-3)" x="4.54747351e-13" y="10.5" width="42" height="13.8"></rect>
                    </g>
                    <g id="Rectangle" transform="translate(162.500000, 18.100000) scale(-1, -1) translate(-162.500000, -18.100000) translate(140.500000, 7.100000)">
                        <mask id="mask-5" fill="white">
                            <use xlink:href="#path-4"></use>
                        </mask>
                        <use id="Mask" fill="#A5A5A5" xlink:href="#path-4"></use>
                        <rect fill="#D8D8D8" mask="url(#mask-5)" x="0" y="10.5" width="42" height="13.8"></rect>
                    </g>
                    <rect id="Rectangle" fill="#574152" x="42" y="0" width="100.5" height="36.6" rx="9.3"></rect>
                    <rect id="Rectangle" fill="#3D2738" x="42" y="18.9" width="100.5" height="17.7" rx="8.85"></rect>
                </g>
                <polygon id="Rectangle" fill="#3D2738" points="42 18.9 142.5 18.9 142.5 29.7 42 29.7"></polygon>
                <text id="Snap" font-family="SpaceMono-Bold, Space Mono" font-size="22.5" font-weight="bold" fill="#FFFFFF">
                    <tspan x="64.5" y="25">Snap</tspan>
                </text>
            </g>
        </g>
    </g>
</svg>