<svg id="Layer_1" data-name="Layer 1" xmlns="http://www.w3.org/2000/svg" xmlns:xlink="http://www.w3.org/1999/xlink" viewBox="0 0 182 276"><defs><style>.cls-1,.cls-11,.cls-2,.cls-9{fill:#fff;}.cls-11,.cls-2{fill-rule:evenodd;}.cls-3{fill:#774c6c;}.cls-4{mask:url(#mask);}.cls-5,.cls-6{fill:#3d2738;}.cls-10,.cls-11,.cls-5,.cls-7,.cls-8,.cls-9{stroke:#3d2738;}.cls-5{stroke-width:0.75px;}.cls-7,.cls-8{fill:none;}.cls-10,.cls-7{stroke-width:4.5px;}.cls-8{stroke-width:6px;}.cls-9{stroke-width:6.75px;}.cls-10{fill:#6a4561;}.cls-11{stroke-width:3.75px;}.cls-12{mask:url(#mask-2-2);}.cls-13{mask:url(#mask-3);}.cls-14{stroke:#a26694;stroke-width:3px;}</style><mask id="mask" x="8.99" y="171" width="164.77" height="105" maskUnits="userSpaceOnUse"><g id="mask-2"><rect class="cls-1" x="8.99" y="171" width="164.77" height="105" rx="23.25"/></g></mask><mask id="mask-2-2" x="103.36" y="60.75" width="59.17" height="38.25" maskUnits="userSpaceOnUse"><g id="mask-4"><path id="path-3" class="cls-2" d="M119.61,62.67a62.88,62.88,0,0,1,15.2-1.92,59.76,59.76,0,0,1,14.48,1.8h0a13.5,13.5,0,0,1,10.24,13.1v8.1a13.5,13.5,0,0,1-9.72,13A56,56,0,0,1,134.07,99a53.17,53.17,0,0,1-15-2.16h0a13.5,13.5,0,0,1-9.7-13V75.77A13.49,13.49,0,0,1,119.61,62.67Z"/></g></mask><mask id="mask-3" x="16.48" y="60.75" width="59.17" height="38.25" maskUnits="userSpaceOnUse"><g id="mask-6"><path id="path-5" class="cls-2" d="M30.48,62.67a63,63,0,0,1,15.21-1.92,59.68,59.68,0,0,1,14.47,1.8h0A13.5,13.5,0,0,1,70.4,75.65v8.1a13.5,13.5,0,0,1-9.72,13A56,56,0,0,1,44.94,99a53.17,53.17,0,0,1-15-2.16h0a13.5,13.5,0,0,1-9.7-13V75.77A13.49,13.49,0,0,1,30.48,62.67Z"/></g></mask></defs><title>ThanosFace</title><g id="Snap"><g id="Dashboard-New-USER"><g id="Group-6"><g id="Group-5"><path id="Rectangle" class="cls-3" d="M16.69,11.06A263.69,263.69,0,0,1,91.37,0a258.72,258.72,0,0,1,74,11h0A23.26,23.26,0,0,1,182,33.29V223.5a23.25,23.25,0,0,1-23.25,23.25H23.25A23.25,23.25,0,0,1,0,223.5V33.36H0A23.24,23.24,0,0,1,16.69,11.06Z"/><g id="Mask-4-2" data-name="Mask"><g id="path-1-link"><rect id="path-1" class="cls-3" x="8.99" y="171" width="164.77" height="105" rx="23.25"/></g><g id="Rectangle-Clipped"><g class="cls-4"><rect class="cls-5" x="23.59" y="187.38" width="6.74" height="88.25"/></g></g></g><rect class="cls-6" x="150.54" y="187" width="7.49" height="89"/></g><path id="Path-4" class="cls-7" d="M23.22,55.5q10.56-5.39,26.21-3.75t24,9"/><path class="cls-7" d="M158,55.5q-10.56-5.39-26.21-3.75t-24,9"/><path class="cls-7" d="M144.59,33.36q-23-6.28-57.33-6t-52.81,7"/><path class="cls-7" d="M144.59,23.52q-23-6.28-57.33-6t-52.81,7"/><path class="cls-8" d="M42.09,167Q42.94,161.1,48,155t10.38-7.68"/><path class="cls-8" d="M138.41,167q-.85-5.9-5.95-12.05t-10.38-7.68"/><rect class="cls-6" x="41.94" y="203" width="7.49" height="73"/><rect class="cls-6" x="59.92" y="203" width="7.49" height="73"/><rect class="cls-6" x="77.89" y="203" width="7.49" height="73"/><rect class="cls-6" x="95.87" y="203" width="7.49" height="73"/><rect class="cls-6" x="113.84" y="203" width="7.49" height="73"/><rect class="cls-6" x="132.57" y="203" width="7.49" height="73"/><path class="cls-9" d="M39.06,175.64h0a10.42,10.42,0,0,0-1.93-.18A10.54,10.54,0,0,0,26.59,186v3a12,12,0,0,0,11.17,12q26.82,1.86,53.61,1.87,26.52,0,52.14-1.83a12,12,0,0,0,11.15-12V186a10.21,10.21,0,0,0-.18-1.91,10.58,10.58,0,0,0-12.33-8.51,289,289,0,0,1-52.27,4.8A276.26,276.26,0,0,1,39.06,175.64Z"/><path class="cls-10" d="M87.22,101.25a12.75,12.75,0,0,0-12.67,11.3L72,135.05a11.76,11.76,0,0,0-.09,1.45,12.75,12.75,0,0,0,12.75,12.75H97.47a14.09,14.09,0,0,0,1.45-.08,12.76,12.76,0,0,0,11.22-14.12l-2.57-22.5a12.74,12.74,0,0,0-12.67-11.3Z"/><rect class="cls-6" x="41.19" y="177" width="3.74" height="23.25"/><rect class="cls-6" x="57.67" y="177" width="3.74" height="23.25"/><rect class="cls-6" x="73.4" y="177" width="3.74" height="23.25"/><rect class="cls-6" x="89.88" y="177" width="3.74" height="23.25"/><rect class="cls-6" x="105.6" y="177" width="3.74" height="23.25"/><rect class="cls-6" x="121.33" y="177" width="3.74" height="23.25"/><rect class="cls-6" x="137.06" y="177" width="3.74" height="23.25"/><path id="Path" class="cls-11" d="M120.06,64.49a11.63,11.63,0,0,0-8.84,11.28v8.11A11.64,11.64,0,0,0,119.58,95a51.23,51.23,0,0,0,14.49,2.08,54.14,54.14,0,0,0,15.21-2.21,11.64,11.64,0,0,0,8.38-11.16v-8.1a11.63,11.63,0,0,0-8.82-11.28,58.1,58.1,0,0,0-14-1.75A60.8,60.8,0,0,0,120.06,64.49Z"/><g id="Clipped"><g class="cls-12"><rect class="cls-6" x="103.36" y="63" width="59.17" height="8.25"/></g></g><path class="cls-11" d="M30.93,64.49A11.62,11.62,0,0,0,22.1,75.77v8.11A11.63,11.63,0,0,0,30.45,95a51.28,51.28,0,0,0,14.49,2.08,54,54,0,0,0,15.21-2.21,11.63,11.63,0,0,0,8.38-11.16v-8.1a11.63,11.63,0,0,0-8.82-11.28,58.08,58.08,0,0,0-14-1.75A60.82,60.82,0,0,0,30.93,64.49Z"/><g class="cls-13"><rect class="cls-6" x="16.48" y="63" width="59.17" height="8.25"/></g><ellipse id="Oval" class="cls-14" cx="48.31" cy="82.88" rx="6.36" ry="6.38"/><ellipse class="cls-14" cx="132.19" cy="82.88" rx="6.36" ry="6.38"/></g></g></g></svg>