<?xml version="1.0" encoding="UTF-8"?>
<svg width="182px" height="276px" viewBox="0 0 182 276" version="1.1" xmlns="http://www.w3.org/2000/svg" xmlns:xlink="http://www.w3.org/1999/xlink">
    <!-- Generator: Sketch 54 (76480) - https://sketchapp.com -->
    <title>Thanos Face</title>
    <desc>Created with Sketch.</desc>
    <defs>
        <rect id="path-1" x="0" y="0" width="164.773663" height="105" rx="23.25"></rect>
        <path d="M10.255208,1.91573105 C15.4130536,0.638577017 20.4829916,4.6505974e-16 25.465022,0 C30.292885,0 35.1177499,0.599667368 39.9396169,1.7990021 C45.957016,3.29569678 50.1810714,8.6990958 50.1810714,14.8998366 L50.1810705,22.9962313 C50.1810705,28.9980196 46.2187523,34.2791424 40.4564348,35.9575819 C35.2096401,37.4858606 29.9628454,38.25 24.7160508,38.25 C19.6214,38.25 14.6166838,37.5295343 9.70190231,36.088603 C3.95095515,34.4025252 1.40218866e-06,29.1269134 1.40218866e-06,23.1338965 L1.44550508e-06,15.019979 C1.44550508e-06,8.81395438 4.23111277,3.40738051 10.255208,1.91573105 Z" id="path-3"></path>
        <path d="M10.255208,1.91573105 C15.4130536,0.638577017 20.4829916,4.6505974e-16 25.465022,0 C30.292885,0 35.1177499,0.599667368 39.9396169,1.7990021 L39.9396175,1.79899955 C45.957016,3.29569678 50.1810714,8.6990958 50.1810714,14.8998366 L50.1810705,22.9962313 C50.1810705,28.9980196 46.2187523,34.2791424 40.4564348,35.9575819 C35.2096401,37.4858606 29.9628454,38.25 24.7160508,38.25 C19.6214,38.25 14.6166838,37.5295343 9.70190231,36.088603 L9.70190143,36.088606 C3.95095515,34.4025252 1.40218866e-06,29.1269134 1.40218866e-06,23.1338965 L1.44550508e-06,15.019979 C1.44550508e-06,8.81395438 4.23111277,3.40738051 10.255208,1.91573105 Z" id="path-5"></path>
    </defs>
    <g id="Snap" stroke="none" stroke-width="1" fill="none" fill-rule="evenodd">
        <g id="Dashboard-Logged-In" transform="translate(-383.000000, -824.000000)">
            <g id="Thanos-Face" transform="translate(383.000000, 824.000000)">
                <g id="Group-5">
                    <path d="M16.6890773,11.0573178 C41.7500243,3.68577261 66.6451604,4.10590494e-15 91.3744856,0 C116.043671,0 140.711393,3.66786728 165.377652,11.0036018 L165.377652,11.0036009 C175.238729,13.936281 182,23.0010216 182,33.2889495 L182,127.253906 L181.999999,223.5 C182,236.34062 171.59062,246.75 158.75,246.75 L23.2499981,246.749999 C10.4093783,246.749999 -7.34634773e-07,236.34062 -9.67463066e-07,223.5 C-3.35111165e-07,178.019562 -4.12720596e-07,145.852895 -9.67463066e-07,127 C-3.94878781e-07,107.540752 -7.64536281e-08,76.328219 -1.21876081e-08,33.3624019 L3.29867081e-07,33.3624019 C3.45293748e-07,23.0487177 6.79455698,13.9677387 16.6890773,11.0573178 Z" id="Rectangle" fill="#774C6C" fill-rule="nonzero"></path>
                    <g id="Rectangle" transform="translate(8.987654, 171.000000)">
                        <g id="Mask">
                            <g id="path-2-link" fill="#774C6C" fill-rule="nonzero">
                                <rect id="path-2" x="0" y="0" width="164.773663" height="105" rx="23.25"></rect>
                            </g>
                            <g id="Rectangle-Clipped">
                                <mask id="mask-2" fill="white">
                                    <use xlink:href="#path-1"></use>
                                </mask>
                                <g id="path-2"></g>
                                <rect id="Rectangle" stroke="#3D2738" stroke-width="0.75" fill="#3D2738" fill-rule="nonzero" mask="url(#mask-2)" x="14.6054527" y="16.375" width="6.73971193" height="88.25"></rect>
                            </g>
                        </g>
                        <rect fill="#3D2738" fill-rule="nonzero" x="141.555556" y="16" width="7.48971193" height="89"></rect>
                    </g>
                </g>
                <path d="M23.218107,55.5 C30.259046,51.9082728 38.9970433,50.6582728 49.4320988,51.75 C59.8671543,52.8417272 67.8561803,55.8417272 73.399177,60.75" id="Path-4" stroke="#3D2738" stroke-width="4.5"></path>
                <path d="M107.851852,55.5 C114.892791,51.9082728 123.630788,50.6582728 134.065844,51.75 C144.500899,52.8417272 152.489925,55.8417272 158.032922,60.75" id="Path-4" stroke="#3D2738" stroke-width="4.5" transform="translate(132.942387, 56.059136) scale(-1, 1) translate(-132.942387, -56.059136) "></path>
                <path d="M144.612772,32.395268 C129.226215,28.4731382 110.085528,26.8126087 87.1907093,27.4136795 C64.2958908,28.0147503 46.7369976,30.6387749 34.5140294,35.2857533" id="Path-4" stroke="#3D2738" stroke-width="4.5" transform="translate(89.563401, 31.289811) rotate(1.000000) translate(-89.563401, -31.289811) "></path>
                <path d="M144.612772,22.5630148 C129.226215,18.640885 110.085528,16.9803555 87.1907093,17.5814262 C64.2958908,18.182497 46.7369976,20.8065216 34.5140294,25.4535001" id="Path-4" stroke="#3D2738" stroke-width="4.5" transform="translate(89.563401, 21.457558) rotate(1.000000) translate(-89.563401, -21.457558) "></path>
                <path d="M36.6804932,156.320473 C40.2579759,154.597029 44.6967511,153.995201 49.9968187,154.514988 C55.2968864,155.034776 59.3539315,156.469805 62.1679539,158.820076" id="Path-4" stroke="#3D2738" stroke-width="6" transform="translate(49.424224, 156.577200) rotate(-56.000000) translate(-49.424224, -156.577200) "></path>
                <path d="M118.324206,156.320473 C121.901689,154.597029 126.340464,153.995201 131.640532,154.514988 C136.9406,155.034776 140.997645,156.469805 143.811667,158.820076" id="Path-4" stroke="#3D2738" stroke-width="6" transform="translate(131.067937, 156.577200) scale(-1, 1) rotate(-56.000000) translate(-131.067937, -156.577200) "></path>
                <rect id="Rectangle" fill="#3D2738" fill-rule="nonzero" x="41.9423868" y="203" width="7.48971193" height="73"></rect>
                <rect id="Rectangle" fill="#3D2738" fill-rule="nonzero" x="59.9176955" y="203" width="7.48971193" height="73"></rect>
                <rect id="Rectangle" fill="#3D2738" fill-rule="nonzero" x="77.8930041" y="203" width="7.48971193" height="73"></rect>
                <rect id="Rectangle" fill="#3D2738" fill-rule="nonzero" x="95.8683128" y="203" width="7.48971193" height="73"></rect>
                <rect id="Rectangle" fill="#3D2738" fill-rule="nonzero" x="113.843621" y="203" width="7.48971193" height="73"></rect>
                <rect id="Rectangle" fill="#3D2738" fill-rule="nonzero" x="132.567901" y="203" width="7.48971193" height="73"></rect>
                <path d="M39.0612294,175.641633 L39.0612236,175.641663 C38.4243211,175.522915 37.7778238,175.463161 37.1299457,175.463161 C31.3106104,175.463161 26.593107,180.180665 26.593107,186 L26.593107,189.039175 C26.593107,195.343506 31.4714568,200.572895 37.7605988,201.010262 C55.6367162,202.253426 73.5079651,202.875 91.3744856,202.875 C109.054668,202.875 126.433497,202.266324 143.511068,201.049106 C149.791502,200.601462 154.657925,195.375836 154.657925,189.079472 L154.657922,186 C154.657922,185.358656 154.599698,184.718636 154.483968,184.08782 C153.4279,178.331467 147.905338,174.521125 142.148982,175.577171 C124.71581,178.775483 107.290859,180.375 89.8765432,180.375 C72.9241102,180.375 55.9848218,178.796981 39.0612294,175.641633 Z" id="Rectangle" stroke="#3D2738" stroke-width="6.75" fill="#FFFFFF" fill-rule="nonzero"></path>
                <path d="M87.2220893,101.25 C80.7398475,101.25 75.2893637,106.113808 74.5543239,112.554241 L71.9864226,135.054241 C71.9316439,135.534214 71.9041881,136.016912 71.9041881,136.5 C71.9041881,143.541631 77.6125575,149.25 84.6541881,149.25 L97.4717847,149.25 C97.954873,149.25 98.4375709,149.222544 98.9175434,149.167765 C105.913757,148.369295 110.938021,142.050455 110.13955,135.054241 L107.571649,112.554241 C106.836609,106.113808 101.386125,101.25 94.9038834,101.25 L87.2220893,101.25 Z" id="Rectangle" stroke="#3D2738" stroke-width="4.5" fill="#6A4561" fill-rule="nonzero"></path>
                <rect id="Rectangle" fill="#3D2738" fill-rule="nonzero" x="41.1934156" y="177" width="3.74485597" height="23.25"></rect>
                <rect id="Rectangle" fill="#3D2738" fill-rule="nonzero" x="57.6707819" y="177" width="3.74485597" height="23.25"></rect>
                <rect id="Rectangle" fill="#3D2738" fill-rule="nonzero" x="73.399177" y="177" width="3.74485597" height="23.25"></rect>
                <rect id="Rectangle" fill="#3D2738" fill-rule="nonzero" x="89.8765432" y="177" width="3.74485597" height="23.25"></rect>
                <rect id="Rectangle" fill="#3D2738" fill-rule="nonzero" x="105.604938" y="177" width="3.74485597" height="23.25"></rect>
                <rect id="Rectangle" fill="#3D2738" fill-rule="nonzero" x="121.333333" y="177" width="3.74485597" height="23.25"></rect>
                <rect id="Rectangle" fill="#3D2738" fill-rule="nonzero" x="137.061728" y="177" width="3.74485597" height="23.25"></rect>
                <g id="Rectangle" transform="translate(109.349794, 60.750000)">
                    <path d="M10.7058738,3.7357655 C5.51845842,5.02024142 1.87500145,9.67590225 1.87500145,15.019979 L1.8750014,23.1338965 C1.8750014,28.2945505 5.27721193,32.8374379 10.2294165,34.2893382 C14.9730921,35.6801042 19.8001873,36.375 24.7160508,36.375 C29.7835306,36.375 34.8539251,35.6365514 39.9320787,34.1573942 C44.8940743,32.7120713 48.3060705,28.1644379 48.3060705,22.9962311 L48.3060714,14.8998366 C48.3060714,9.56030933 44.66869,4.90738288 39.4870408,3.61856245 C34.8121545,2.45578596 30.1392074,1.875 25.465022,1.875 C20.6374357,1.875 15.7185991,2.49454525 10.7058738,3.7357655 Z" id="Path" stroke="#3D2738" stroke-width="3.75" fill="#FFFFFF"></path>
                    <g id="Clipped">
                        <mask id="mask-4" fill="white">
                            <use xlink:href="#path-3"></use>
                        </mask>
                        <g id="path-4"></g>
                        <rect id="Rectangle" fill="#3D2738" fill-rule="nonzero" mask="url(#mask-4)" x="-5.99176955" y="2.25" width="59.1687243" height="8.25"></rect>
                    </g>
                </g>
                <g id="Rectangle" transform="translate(20.222222, 60.750000)">
                    <path d="M10.7058738,3.7357655 C5.51845842,5.02024142 1.87500145,9.67590225 1.87500145,15.019979 L1.8750014,23.1338965 C1.8750014,28.2945505 5.27721193,32.8374379 10.2294165,34.2893382 C14.9730921,35.6801042 19.8001873,36.375 24.7160508,36.375 C29.7835306,36.375 34.8539251,35.6365514 39.9320787,34.1573942 C44.8940743,32.7120713 48.3060705,28.1644379 48.3060705,22.9962311 L48.3060714,14.8998366 C48.3060714,9.56030933 44.66869,4.90738288 39.4870408,3.61856245 C34.8121545,2.45578596 30.1392074,1.875 25.465022,1.875 C20.6374357,1.875 15.7185991,2.49454525 10.7058738,3.7357655 Z" id="Path" stroke="#3D2738" stroke-width="3.75" fill="#FFFFFF"></path>
                    <g id="Clipped">
                        <mask id="mask-6" fill="white">
                            <use xlink:href="#path-5"></use>
                        </mask>
                        <g id="path-6"></g>
                        <rect id="Rectangle" fill="#3D2738" fill-rule="nonzero" mask="url(#mask-6)" x="-3.74485597" y="2.25" width="59.1687243" height="8.25"></rect>
                    </g>
                </g>
                <ellipse id="Oval" stroke="#A26694" stroke-width="3" fill="#000000" fill-rule="nonzero" cx="48.308642" cy="82.875" rx="6.36419753" ry="6.375"></ellipse>
                <ellipse id="Oval" stroke="#A26694" stroke-width="3" fill="#000000" fill-rule="nonzero" cx="132.193416" cy="82.875" rx="6.36419753" ry="6.375"></ellipse>
            </g>
        </g>
    </g>
</svg>