<svg xmlns="http://www.w3.org/2000/svg" xmlns:xlink="http://www.w3.org/1999/xlink" width="182" height="276" viewBox="0 0 182 276"><defs><style>.a,.b,.i,.k{fill:#fff;}.b,.k{fill-rule:evenodd;}.c{fill:#774c6c;}.d{mask:url(#a);}.e,.f{fill:#3d2738;}.e,.g,.h,.i,.j,.k{stroke:#3d2738;}.e{stroke-width:0.75px;}.g,.h{fill:none;}.g,.j{stroke-width:4.5px;}.h{stroke-width:6px;}.i{stroke-width:6.75px;}.j{fill:#6a4561;}.k{stroke-width:3.75px;}.l{mask:url(#b);}.m{mask:url(#c);}.n{stroke:#a26694;stroke-width:3px;}</style><mask id="a" x="8.99" y="171" width="164.77" height="105" maskUnits="userSpaceOnUse"><g transform="translate(0)"><path class="a" d="M32.2,171H150.5a23.3,23.3,0,0,1,23.3,23.3v58.5A23.2,23.2,0,0,1,150.5,276H32.2A23.2,23.2,0,0,1,9,252.8V194.3A23.3,23.3,0,0,1,32.2,171Z"/></g></mask><mask id="b" x="103.36" y="60.75" width="59.17" height="38.25" maskUnits="userSpaceOnUse"><g transform="translate(0)"><path class="b" d="M119.6,62.7a62,62,0,0,1,15.2-1.9,59.8,59.8,0,0,1,14.5,1.7h0a13.5,13.5,0,0,1,10.2,13.1v8.1a13.5,13.5,0,0,1-9.7,13A56.8,56.8,0,0,1,134.1,99a50.9,50.9,0,0,1-15-2.2h0a13.4,13.4,0,0,1-9.8-12.9V75.8A13.6,13.6,0,0,1,119.6,62.7Z"/></g></mask><mask id="c" x="16.48" y="60.75" width="59.17" height="38.25" maskUnits="userSpaceOnUse"><g transform="translate(0)"><path class="b" d="M30.5,62.7a61.5,61.5,0,0,1,15.2-1.9,60.4,60.4,0,0,1,14.5,1.7h0A13.5,13.5,0,0,1,70.4,75.6v8.1a13.6,13.6,0,0,1-9.7,13A57.5,57.5,0,0,1,44.9,99a50.9,50.9,0,0,1-15-2.2h0a13.4,13.4,0,0,1-9.7-12.9V75.8A13.6,13.6,0,0,1,30.5,62.7Z"/></g></mask></defs><title>ThanosFace</title><path class="c" d="M16.7,11.1A262.6,262.6,0,0,1,91.4,0a260.2,260.2,0,0,1,74,11h0A23.3,23.3,0,0,1,182,33.3V223.5a23.3,23.3,0,0,1-23.2,23.3H23.2A23.3,23.3,0,0,1,0,223.5V33.4H0A23.2,23.2,0,0,1,16.7,11.1Z" transform="translate(0)"/><path class="c" d="M32.2,171H150.5a23.3,23.3,0,0,1,23.3,23.3v58.5A23.2,23.2,0,0,1,150.5,276H32.2A23.2,23.2,0,0,1,9,252.8V194.3A23.3,23.3,0,0,1,32.2,171Z"/><g class="d"><rect class="e" x="23.6" y="187.4" width="6.7" height="88.25"/></g><rect class="f" x="150.5" y="187" width="7.5" height="89"/><path class="g" d="M23.2,55.5c7.1-3.6,15.8-4.8,26.2-3.7s18.5,4,24,9" transform="translate(0)"/><path class="g" d="M158,55.5c-7-3.6-15.7-4.8-26.2-3.7s-18.4,4-23.9,9" transform="translate(0)"/><path class="g" d="M144.6,33.4q-22.9-6.3-57.3-6T34.5,34.3" transform="translate(0)"/><path class="g" d="M144.6,23.5q-22.9-6.3-57.3-6c-22.9.2-40.5,2.6-52.8,7" transform="translate(0)"/><path class="h" d="M42.1,167c.6-3.9,2.5-7.9,5.9-12.1s6.9-6.6,10.4-7.6" transform="translate(0)"/><path class="h" d="M138.4,167c-.6-3.9-2.5-7.9-5.9-12.1s-6.9-6.6-10.4-7.6" transform="translate(0)"/><rect class="f" x="41.9" y="203" width="7.5" height="73"/><rect class="f" x="59.9" y="203" width="7.5" height="73"/><rect class="f" x="77.9" y="203" width="7.5" height="73"/><rect class="f" x="95.9" y="203" width="7.5" height="73"/><rect class="f" x="113.8" y="203" width="7.5" height="73"/><rect class="f" x="132.6" y="203" width="7.5" height="73"/><path class="i" d="M39.1,175.6h-2A10.5,10.5,0,0,0,26.6,186v3a12,12,0,0,0,11.2,12c17.8,1.3,35.7,1.9,53.6,1.9s35-.6,52.1-1.9a11.9,11.9,0,0,0,11.2-11.9V186a12.3,12.3,0,0,0-.2-1.9,10.6,10.6,0,0,0-12.4-8.5,288,288,0,0,1-52.2,4.8A272.2,272.2,0,0,1,39.1,175.6Z" transform="translate(0)"/><path class="j" d="M87.2,101.2a12.7,12.7,0,0,0-12.6,11.4L72,135.1a6.1,6.1,0,0,0-.1,1.4,12.7,12.7,0,0,0,12.8,12.7H98.9a12.7,12.7,0,0,0,11.2-14.1l-2.5-22.5a12.9,12.9,0,0,0-12.7-11.4Z" transform="translate(0)"/><rect class="f" x="41.2" y="177" width="3.7" height="23.25"/><rect class="f" x="57.7" y="177" width="3.7" height="23.25"/><rect class="f" x="73.4" y="177" width="3.7" height="23.25"/><rect class="f" x="89.9" y="177" width="3.7" height="23.25"/><rect class="f" x="105.6" y="177" width="3.7" height="23.25"/><rect class="f" x="121.3" y="177" width="3.7" height="23.25"/><rect class="f" x="137.1" y="177" width="3.7" height="23.25"/><path class="k" d="M120.1,64.5a11.7,11.7,0,0,0-8.9,11.3v8.1A11.6,11.6,0,0,0,119.6,95a50.4,50.4,0,0,0,14.5,2.1,53.7,53.7,0,0,0,15.2-2.2,11.7,11.7,0,0,0,8.4-11.2V75.6a11.6,11.6,0,0,0-8.9-11.2,55.4,55.4,0,0,0-14-1.8A58.2,58.2,0,0,0,120.1,64.5Z" transform="translate(0)"/><g class="l"><rect class="f" x="103.4" y="63" width="59.2" height="8.25"/></g><path class="k" d="M30.9,64.5a11.6,11.6,0,0,0-8.8,11.3v8.1A11.6,11.6,0,0,0,30.5,95a50.2,50.2,0,0,0,14.4,2.1,53.9,53.9,0,0,0,15.3-2.2,11.6,11.6,0,0,0,8.3-11.2V75.6a11.5,11.5,0,0,0-8.8-11.2,56,56,0,0,0-14-1.8A58.9,58.9,0,0,0,30.9,64.5Z" transform="translate(0)"/><g class="m"><rect class="f" x="16.5" y="63" width="59.2" height="8.25"/></g><ellipse class="n" cx="48.3" cy="82.9" rx="6.4" ry="6.4"/><ellipse class="n" cx="132.2" cy="82.9" rx="6.4" ry="6.4"/></svg>